<svg width="47" height="38" viewBox="0 0 47 38" fill="none" xmlns="http://www.w3.org/2000/svg">
<path fill-rule="evenodd" clip-rule="evenodd" d="M3 3.00811C9.65365 3.13633 18.9645 4.80196 26.923 9.5121C35.4122 14.5363 42.3861 23.023 43.0171 37.0232L46.0141 36.8881C45.3317 21.7473 37.6934 12.4004 28.451 6.93037C19.2858 1.50608 8.56791 -0.106151 1.47642 0.00533978L0 0.0285517V1.50515V36.9556H3V3.00811ZM5.26402 8.64859L6.89558 8.79224C12.0086 9.2424 19.6711 11.1553 26.1342 15.4794C32.647 19.8367 38.0053 26.7023 38.145 36.9352L35.1452 36.9761C35.0222 27.9551 30.3654 21.9197 24.466 17.9728C19.1659 14.4267 12.9151 12.6153 8.26402 11.9674V36.9556H5.26402V10.2865V8.64859ZM12.314 17.27L10.528 16.9232V18.7425V36.9556H13.528V20.6933C15.9091 21.4832 18.8829 23.0168 21.4334 25.2797C24.6514 28.1349 27.0643 32.0241 26.9466 36.9196L29.9458 36.9917C30.0908 30.9593 27.0857 26.284 23.4245 23.0357C19.7874 19.8087 15.3731 17.8642 12.314 17.27Z" fill="black"/>
</svg>
